#!OML:ASF E:\emotionWalksFemale\Project 1\Capture day 1\Session 1\Female1.ASF
:FULLY-SPECIFIED
:DEGREES
1709
root 9.47371 15.9564 39.2468 183.396 -125.42 -183.87
lowerback 6.43517 -6.90094 -0.87786
upperback -4.84387 -9.19186 2.78207
thorax -8.09585 -4.38093 4.60818
lowerneck 3.08536 -18.0749 -17.6331
upperneck -0.662738 -25.547 19.787
head 4.14994 -12.8287 6.98205
rclavicle 2.17669e-014 6.75868e-015
rhumerus -65.4173 14.7213 -86.6453
rradius 50.4307
rwrist -0.112237
rhand -4.52859 -53.3618
rfingers 7.12502
rthumb -158.754 97.7827
lclavicle 2.17669e-014 6.75868e-015
lhumerus -19.9037 -57.7723 114.134
lradius 57.5624
lwrist -3.98424
lhand 5.94661 319.301
lfingers 7.12502
lthumb 31.2724 -13.3503
rfemur -11.0846 5.89705 27.4715
rtibia 44.5103
rfoot 17.403 -2.1399
rtoes 10.7207
lfemur -13.0771 8.92498 -23.8369
ltibia 38.8836
lfoot -6.14193 23.8757
ltoes 19.0555
1710
root 9.46235 15.9615 39.2535 183.537 -122.955 -183.863
lowerback 6.30772 -6.86765 -0.82856
upperback -4.79038 -9.1572 2.55437
thorax -8.01178 -4.37653 4.31746
lowerneck 3.10132 -17.9552 -17.2842
upperneck -0.761599 -25.3921 19.9632
head 4.07311 -12.7629 7.02636
rclavicle 1.05058e-013 -1.55052e-014
rhumerus -65.6546 14.5244 -86.8696
rradius 51.5653
rwrist -0.425123
rhand -4.35066 -52.9577
rfingers 7.12502
rthumb -158.583 98.2061
lclavicle 1.05058e-013 -1.55052e-014
lhumerus -19.8857 -57.6042 113.538
lradius 57.378
lwrist -3.79328
lhand 5.67528 319.992
lfingers 7.12502
lthumb 31.0139 -12.6091
rfemur -10.6775 6.47672 27.3529
rtibia 43.5859
rfoot 16.4414 -2.55972
rtoes 9.12405
lfemur -13.8309 9.97023 -23.9584
ltibia 40.2963
lfoot -5.59155 24.5341
ltoes 18.0018
1711
root 9.44716 15.9726 39.2652 184.771 -120.596 -184.722
lowerback 5.75156 -6.85606 -0.434426
upperback -4.80174 -9.10827 2.56413
thorax -7.76524 -4.38621 4.03299
lowerneck 3.26344 -17.787 -16.9089
upperneck -1.09496 -25.1466 20.1143
head 3.88028 -12.6657 7.09961
rclavicle 8.20484e-014 9.93923e-015
rhumerus -65.7973 14.2046 -86.9224
rradius 52.4267
rwrist -0.42203
rhand -3.92541 -52.6032
rfingers 7.12502
rthumb -158.174 98.6076
lclavicle 8.20484e-014 9.93923e-015
lhumerus -19.3717 -56.7935 112.742
lradius 56.8075
lwrist -3.86411
lhand 5.85753 320.374
lfingers 7.12502
lthumb 31.1876 -12.2603
rfemur -10.6787 7.1291 27.6983
rtibia 42.7644
rfoot 15.2701 -3.17107
rtoes 8.64523
lfemur -14.9797 10.6163 -23.6906
ltibia 41.6343
lfoot -5.11729 25.3062
ltoes 17.1086
1712
root 9.43653 16.0225 39.2929 185.654 -118.348 -185.139
lowerback 5.41259 -6.93728 -0.0647605
upperback -4.95207 -9.19082 2.57487
thorax -7.78346 -4.44947 3.82365
lowerneck 3.33362 -17.7011 -16.8727
upperneck -1.13966 -25.0329 20.0741
head 3.82512 -12.6171 7.11269
rclavicle -2.60905e-014 -1.15295e-014
rhumerus -65.8198 14.4357 -86.9846
rradius 53.159
rwrist -0.947409
rhand -3.66592 -52.0925
rfingers 7.12502
rthumb -157.925 99.1475
lclavicle -2.60905e-014 -1.15295e-014
lhumerus -18.5495 -54.9568 111.863
lradius 55.7671
lwrist -4.49736
lhand 7.08975 320.096
lfingers 7.12502
lthumb 32.3611 -12.7707
rfemur -10.5286 7.69617 27.607
rtibia 41.5922
rfoot 14.8082 -3.4107
rtoes 11.8651
lfemur -16.0987 10.2333 -23.6469
ltibia 42.9618
lfoot -8.01278 25.8715
ltoes 29.1618
1713
root 9.4889 15.9825 39.316 190.207 -116.339 -189.017
lowerback 5.35261 -7.12393 2.29691
upperback -5.35102 -9.20961 3.05376
thorax -8.4842 -4.56946 3.11519
lowerneck 3.14667 -17.5984 -16.9894
upperneck -1.05298 -24.8772 20.0047
head 3.85744 -12.529 7.10931
rclavicle -1.46107e-014 7.95139e-016
rhumerus -66.0783 15.4246 -87.301
rradius 54.4177
rwrist -1.95632
rhand -3.8242 -51.4469
rfingers 7.12502
rthumb -158.077 99.7752
lclavicle -1.46107e-014 7.95139e-016
lhumerus -17.778 -53.2746 110.866
lradius 54.8905
lwrist -5.83676
lhand 5.62833 320.988
lfingers 7.12502
lthumb 30.9691 -11.6042
rfemur -11.4797 8.36917 29.0152
rtibia 40.5
rfoot 14.5253 -2.69699
rtoes 12.0957
lfemur -18.0487 9.46517 -22.3181
ltibia 43.8993
lfoot -7.45977 27.1912
ltoes 26.9789
1714
root 9.50717 16.058 39.3805 190.041 -116.323 -188.687
lowerback 5.65471 -7.97757 3.50804
upperback -5.48862 -10.2482 2.74723
thorax -9.07167 -5.14604 2.37576
lowerneck 3.15385 -17.5118 -16.8417
upperneck -1.10332 -24.7478 19.9395
head 3.79081 -12.4703 7.09904
rclavicle -3.96078e-014 1.23246e-014
rhumerus -66.4181 16.2769 -87.8627
rradius 55.6593
rwrist -2.87207
rhand -3.96353 -51.7947
rfingers 7.12502
rthumb -158.211 99.4118
lclavicle -3.96078e-014 1.23246e-014
lhumerus -16.7869 -51.5976 109.498
lradius 53.7591
lwrist -6.10649
lhand 5.93846 321.095
lfingers 7.12502
lthumb 31.2647 -11.5541
rfemur -10.9426 6.84624 28.6514
rtibia 39.272
rfoot 12.6287 -1.61437
rtoes 8.2766
lfemur -18.8048 6.01684 -22.2728
ltibia 44.3866
lfoot -12.9433 26.2906
ltoes 43.9276
1715
root 9.40397 16.0736 39.3039 191.121 -110.332 -190.254
lowerback 5.5438 -6.67988 0.814079
upperback -4.9954 -8.74988 2.97774
thorax -8.00005 -4.2694 3.75127
lowerneck 3.07357 -17.5082 -16.5112
upperneck -1.0186 -24.6986 19.5242
head 3.71956 -12.4411 6.94334
rclavicle 7.83212e-014 -3.97569e-016
rhumerus -66.5361 16.6382 -88.1133
rradius 56.5403
rwrist -3.29586
rhand -3.52139 -52.0785
rfingers 7.12502
rthumb -157.787 99.178
lclavicle 7.83212e-014 -3.97569e-016
lhumerus -16.2813 -49.9099 108.241
lradius 52.9133
lwrist -7.12271
lhand 5.16874 321.138
lfingers 7.12502
lthumb 30.5309 -11.3718
rfemur -9.41998 11.2076 28.9856
rtibia 38.3862
rfoot 15.5754 -3.26886
rtoes 18.6388
lfemur -17.1577 9.31091 -21.7612
ltibia 44.0849
lfoot -13.1027 25.0115
ltoes 37.465
1716
root 9.38501 16.0823 39.3335 188.925 -107.071 -188.448
lowerback 6.15695 -6.41351 -0.179084
upperback -4.78196 -8.48962 2.66643
thorax -8.03737 -4.08751 3.99044
lowerneck 2.8082 -17.451 -16.5246
upperneck -0.874176 -24.5891 19.3521
head 3.76292 -12.3703 6.88168
rclavicle 3.18055e-015 2.26615e-014
rhumerus -66.5025 17.1635 -88.106
rradius 57.3079
rwrist -3.57063
rhand -2.78763 -51.7964
rfingers 7.12502
rthumb -157.082 99.5456
lclavicle 3.18055e-015 2.26615e-014
lhumerus -15.5437 -47.6141 106.973
lradius 51.8854
lwrist -8.19111
lhand 4.52519 321.197
lfingers 7.12502
lthumb 29.917 -11.2005
rfemur -8.34379 11.6049 27.7058
rtibia 37.5487
rfoot 15.3156 -2.95004
rtoes 21.7096
lfemur -15.8954 8.68814 -22.6886
ltibia 43.2944
lfoot -13.0689 24.4621
ltoes 31.2824
1717
root 9.36325 16.0957 39.3489 188.248 -104.377 -187.874
lowerback 6.41208 -6.308 -0.794018
upperback -4.73328 -8.41138 2.58994
thorax -8.05974 -4.01456 4.2605
lowerneck 2.77299 -17.3002 -16.7439
upperneck -0.827533 -24.3966 19.4055
head 3.78336 -12.2741 6.94663
rclavicle -5.61567e-015 -1.66979e-014
rhumerus -66.5386 17.7445 -88.1003
rradius 57.9611
rwrist -3.96477
rhand -2.88679 -51.6786
rfingers 7.12502
rthumb -157.177 99.6517
lclavicle -5.61567e-015 -1.66979e-014
lhumerus -15.1055 -44.8323 105.895
lradius 50.8615
lwrist -9.25816
lhand 4.04861 321.275
lfingers 7.12502
lthumb 29.4621 -11.0414
rfemur -7.80116 12.6762 27.1917
rtibia 37.0745
rfoot 14.9716 -3.36643
rtoes 23.6638
lfemur -15.0575 7.20169 -22.9026
ltibia 42.0634
lfoot -13.04 23.4025
ltoes 24.9667
1718
root 9.36223 16.1126 39.3885 189.263 -101.486 -188.566
lowerback 6.60315 -6.11646 -0.520649
upperback -4.96592 -8.14024 2.4598
thorax -8.4991 -3.88691 3.99459
lowerneck 3.0518 -17.2242 -17.0878
upperneck -0.859619 -24.3573 19.5527
head 3.78444 -12.2714 7.06243
rclavicle 1.22253e-014 9.93923e-015
rhumerus -66.6149 18.0627 -88.0799
rradius 58.4307
rwrist -4.38694
rhand -3.20754 -51.5675
rfingers 7.12502
rthumb -157.485 99.7251
lclavicle 1.22253e-014 9.93923e-015
lhumerus -15.0493 -42.0666 104.917
lradius 49.93
lwrist -10.3554
lhand 3.24076 321.232
lfingers 7.12502
lthumb 28.6906 -10.9517
rfemur -8.11139 13.8814 26.6344
rtibia 36.8043
rfoot 14.8665 -3.14639
rtoes 23.5683
lfemur -14.8318 5.0036 -23.0256
ltibia 40.712
lfoot -14.6705 22.4136
ltoes 23.0644
